<svg width="320" height="90" viewBox="0 0 320 90" fill="none" xmlns="http://www.w3.org/2000/svg">
<path d="M265.532 54C265.05 52.556 264.404 50.7447 263.594 48.566H251.472L249.572 54H240.034L250.674 26.412H264.658L275.374 54H265.532ZM261.428 42.638C260.465 39.978 259.477 37.318 258.464 34.658L257.552 32.188C256.665 34.4933 255.36 37.9767 253.638 42.638H261.428Z" fill="white"/>
<path d="M233.955 26.412C233.778 30.6933 233.689 35.2913 233.689 40.206C233.689 45.1207 233.778 49.7187 233.955 54H225.025V43.664H211.041V54H202.111C202.314 49.0853 202.415 44.4873 202.415 40.206C202.415 35.9247 202.314 31.3267 202.111 26.412H211.041V36.748H225.025V26.412H233.955Z" fill="white"/>
<path d="M171.941 26.45L171.295 47.768L180.529 26.45H194.513C194.336 30.7313 194.247 35.3167 194.247 40.206C194.247 45.1207 194.336 49.7187 194.513 54H184.747L185.431 33.252L176.235 54H162.631C162.834 49.0853 162.935 44.4873 162.935 40.206C162.935 35.95 162.834 31.3647 162.631 26.45H171.941Z" fill="white"/>
<path d="M155.043 26.412C154.865 30.6933 154.777 35.2913 154.777 40.206C154.777 45.1207 154.865 49.7187 155.043 54H146.113V34.088H133.269V54H124.339C124.541 49.0853 124.643 44.4873 124.643 40.206C124.643 35.9247 124.541 31.3267 124.339 26.412H155.043Z" fill="white"/>
<path d="M107.909 54C107.428 52.556 106.782 50.7447 105.971 48.566H93.849L91.949 54H82.411L93.051 26.412H107.035L117.751 54H107.909ZM103.805 42.638C102.842 39.978 101.854 37.318 100.841 34.658L99.929 32.188C99.0423 34.4933 97.7377 37.9767 96.015 42.638H103.805Z" fill="white"/>
<path d="M76.3426 26.412C76.1652 30.6933 76.0765 35.2913 76.0765 40.206C76.0765 45.1207 76.1652 49.7187 76.3426 54H67.4125V34.088H54.5685V54H45.6385C45.8412 49.0853 45.9425 44.4873 45.9425 40.206C45.9425 35.9247 45.8412 31.3267 45.6385 26.412H76.3426Z" fill="white"/>
<path d="M291 54C293.761 54 296 51.7614 296 49C296 46.2386 293.761 44 291 44C288.239 44 286 46.2386 286 49C286 51.7614 288.239 54 291 54Z" fill="#FF4D00"><animate attributeName="opacity" values="1;0.3;1" dur="2.5s" repeatCount="indefinite"/></path>
<path d="M278.102 84H276.34V71.017H273.244C272.458 71.017 271.826 71.1378 271.347 71.3793C270.869 71.616 270.521 71.9522 270.303 72.3878C270.086 72.8234 269.977 73.3324 269.977 73.9148C269.977 74.4972 270.083 74.9991 270.296 75.4205C270.514 75.8371 270.86 76.1591 271.333 76.3864C271.811 76.6136 272.439 76.7273 273.215 76.7273H277.136V78.3182H273.158C272.032 78.3182 271.106 78.1312 270.382 77.7571C269.657 77.3783 269.12 76.8575 268.769 76.1946C268.419 75.5317 268.244 74.7718 268.244 73.9148C268.244 73.0578 268.419 72.2931 268.769 71.6207C269.12 70.9484 269.659 70.4205 270.389 70.0369C271.118 69.6487 272.051 69.4545 273.187 69.4545H278.102V84ZM271.255 77.4659H273.244L269.721 84H267.676L271.255 77.4659Z" fill="white"/>
<path d="M252.696 84H250.85L256.191 69.4545H258.009L263.35 84H261.503L257.156 71.7557H257.043L252.696 84ZM253.378 78.3182H260.821V79.8807H253.378V78.3182Z" fill="white"/>
<path d="M245.121 84L240.121 77.3239H238.331V84H236.57V69.4545H238.331V75.7614H239.098L244.922 69.4545H247.025L241.144 75.8466L247.223 84H245.121Z" fill="white"/>
<path d="M231.124 74H229.362C229.258 73.4934 229.076 73.0483 228.816 72.6648C228.56 72.2813 228.247 71.9593 227.878 71.6989C227.513 71.4337 227.109 71.2349 226.664 71.1023C226.218 70.9697 225.754 70.9034 225.271 70.9034C224.391 70.9034 223.593 71.1259 222.878 71.571C222.168 72.0161 221.602 72.6719 221.181 73.5384C220.764 74.4048 220.556 75.4678 220.556 76.7273C220.556 77.9867 220.764 79.0497 221.181 79.9162C221.602 80.7827 222.168 81.4384 222.878 81.8835C223.593 82.3286 224.391 82.5511 225.271 82.5511C225.754 82.5511 226.218 82.4849 226.664 82.3523C227.109 82.2197 227.513 82.0232 227.878 81.7628C228.247 81.4976 228.56 81.1733 228.816 80.7898C229.076 80.4015 229.258 79.9564 229.362 79.4545H231.124C230.991 80.1979 230.75 80.8632 230.399 81.4503C230.049 82.0374 229.613 82.5369 229.092 82.9489C228.572 83.3561 227.987 83.6662 227.338 83.8793C226.694 84.0923 226.005 84.1989 225.271 84.1989C224.031 84.1989 222.928 83.8958 221.962 83.2898C220.996 82.6837 220.236 81.822 219.682 80.7045C219.128 79.5871 218.851 78.2614 218.851 76.7273C218.851 75.1932 219.128 73.8674 219.682 72.75C220.236 71.6326 220.996 70.7708 221.962 70.1648C222.928 69.5587 224.031 69.2557 225.271 69.2557C226.005 69.2557 226.694 69.3622 227.338 69.5753C227.987 69.7884 228.572 70.1009 229.092 70.5128C229.613 70.92 230.049 71.4171 230.399 72.0043C230.75 72.5866 230.991 73.2519 231.124 74Z" fill="white"/>
<path d="M204.124 84V69.4545H209.039C210.18 69.4545 211.113 69.6605 211.837 70.0724C212.566 70.4796 213.106 71.0312 213.456 71.7273C213.807 72.4233 213.982 73.1998 213.982 74.0568C213.982 74.9138 213.807 75.6927 213.456 76.3935C213.111 77.0942 212.576 77.6529 211.851 78.0696C211.127 78.4815 210.199 78.6875 209.067 78.6875H205.544V77.125H209.01C209.792 77.125 210.419 76.9901 210.892 76.7202C211.366 76.4503 211.709 76.0857 211.922 75.6264C212.14 75.1624 212.249 74.6392 212.249 74.0568C212.249 73.4744 212.14 72.9536 211.922 72.4943C211.709 72.035 211.363 71.6752 210.885 71.4148C210.407 71.1496 209.773 71.017 208.982 71.017H205.885V84H204.124Z" fill="white"/>
<path d="M198.562 76.7273C198.562 78.2614 198.285 79.5871 197.731 80.7045C197.177 81.822 196.417 82.6837 195.451 83.2898C194.486 83.8958 193.382 84.1989 192.142 84.1989C190.901 84.1989 189.798 83.8958 188.832 83.2898C187.866 82.6837 187.106 81.822 186.552 80.7045C185.998 79.5871 185.721 78.2614 185.721 76.7273C185.721 75.1932 185.998 73.8674 186.552 72.75C187.106 71.6326 187.866 70.7708 188.832 70.1648C189.798 69.5587 190.901 69.2557 192.142 69.2557C193.382 69.2557 194.486 69.5587 195.451 70.1648C196.417 70.7708 197.177 71.6326 197.731 72.75C198.285 73.8674 198.562 75.1932 198.562 76.7273ZM196.858 76.7273C196.858 75.4678 196.647 74.4048 196.226 73.5384C195.809 72.6719 195.243 72.0161 194.528 71.571C193.818 71.1259 193.022 70.9034 192.142 70.9034C191.261 70.9034 190.463 71.1259 189.748 71.571C189.038 72.0161 188.472 72.6719 188.051 73.5384C187.634 74.4048 187.426 75.4678 187.426 76.7273C187.426 77.9867 187.634 79.0497 188.051 79.9162C188.472 80.7827 189.038 81.4384 189.748 81.8835C190.463 82.3286 191.261 82.5511 192.142 82.5511C193.022 82.5511 193.818 82.3286 194.528 81.8835C195.243 81.4384 195.809 80.7827 196.226 79.9162C196.647 79.0497 196.858 77.9867 196.858 76.7273Z" fill="white"/>
<path d="M170.667 71.017V69.4545H181.577V71.017H177.003V84H175.241V71.017H170.667Z" fill="white"/>
<path d="M164.484 84L159.484 77.3239H157.695V84H155.933V69.4545H157.695V75.7614H158.462L164.286 69.4545H166.388L160.507 75.8466L166.587 84H164.484Z" fill="white"/>
<path d="M141.62 84.1989V82.5511H142.529C142.879 82.5511 143.173 82.4825 143.41 82.3452C143.651 82.2079 143.85 82.0303 144.006 81.8125C144.167 81.5947 144.3 81.3674 144.404 81.1307L144.631 80.5909L139.603 69.4545H141.506L145.512 78.4886L149.177 69.4545H151.052L146.023 81.642C145.824 82.0966 145.597 82.518 145.341 82.9062C145.09 83.2945 144.747 83.607 144.312 83.8437C143.881 84.0805 143.296 84.1989 142.557 84.1989H141.62Z" fill="white"/>
<path d="M125.557 84V69.4545H130.472C131.613 69.4545 132.546 69.6605 133.271 70.0724C134 70.4796 134.54 71.0312 134.89 71.7273C135.24 72.4233 135.415 73.1998 135.415 74.0568C135.415 74.9138 135.24 75.6927 134.89 76.3935C134.544 77.0942 134.009 77.6529 133.285 78.0696C132.56 78.4815 131.632 78.6875 130.501 78.6875H126.978V77.125H130.444C131.225 77.125 131.852 76.9901 132.326 76.7202C132.799 76.4503 133.143 76.0857 133.356 75.6264C133.574 75.1624 133.682 74.6392 133.682 74.0568C133.682 73.4744 133.574 72.9536 133.356 72.4943C133.143 72.035 132.797 71.6752 132.319 71.4148C131.841 71.1496 131.206 71.017 130.415 71.017H127.319V84H125.557Z" fill="white"/>
<path d="M109.33 71.017V69.4545H120.239V71.017H115.665V84H113.904V71.017H109.33Z" fill="white"/>
<path d="M104.679 74H102.918C102.814 73.4934 102.631 73.0483 102.371 72.6648C102.115 72.2813 101.803 71.9593 101.433 71.6989C101.069 71.4337 100.664 71.2349 100.219 71.1023C99.7739 70.9697 99.3099 70.9034 98.827 70.9034C97.9463 70.9034 97.1484 71.1259 96.4335 71.571C95.7233 72.0161 95.1574 72.6719 94.736 73.5384C94.3194 74.4048 94.111 75.4678 94.111 76.7273C94.111 77.9867 94.3194 79.0497 94.736 79.9162C95.1574 80.7827 95.7233 81.4384 96.4335 81.8835C97.1484 82.3286 97.9463 82.5511 98.827 82.5511C99.3099 82.5511 99.7739 82.4849 100.219 82.3523C100.664 82.2197 101.069 82.0232 101.433 81.7628C101.803 81.4976 102.115 81.1733 102.371 80.7898C102.631 80.4015 102.814 79.9564 102.918 79.4545H104.679C104.547 80.1979 104.305 80.8632 103.955 81.4503C103.604 82.0374 103.169 82.5369 102.648 82.9489C102.127 83.3561 101.542 83.6662 100.894 83.8793C100.25 84.0923 99.5609 84.1989 98.827 84.1989C97.5864 84.1989 96.4832 83.8958 95.5173 83.2898C94.5514 82.6837 93.7914 81.822 93.2375 80.7045C92.6835 79.5871 92.4065 78.2614 92.4065 76.7273C92.4065 75.1932 92.6835 73.8674 93.2375 72.75C93.7914 71.6326 94.5514 70.7708 95.5173 70.1648C96.4832 69.5587 97.5864 69.2557 98.827 69.2557C99.5609 69.2557 100.25 69.3622 100.894 69.5753C101.542 69.7884 102.127 70.1009 102.648 70.5128C103.169 70.92 103.604 71.4171 103.955 72.0043C104.305 72.5866 104.547 73.2519 104.679 74Z" fill="white"/>
<path d="M75.57 84V69.4545H77.3314V75.9318H85.0871V69.4545H86.8484V84H85.0871V77.4943H77.3314V84H75.57Z" fill="white"/>
<path d="M70.0083 76.7273C70.0083 78.2614 69.7313 79.5871 69.1774 80.7045C68.6234 81.822 67.8634 82.6837 66.8975 83.2898C65.9316 83.8958 64.8284 84.1989 63.5879 84.1989C62.3473 84.1989 61.2441 83.8958 60.2782 83.2898C59.3123 82.6837 58.5524 81.822 57.9984 80.7045C57.4444 79.5871 57.1674 78.2614 57.1674 76.7273C57.1674 75.1932 57.4444 73.8674 57.9984 72.75C58.5524 71.6326 59.3123 70.7708 60.2782 70.1648C61.2441 69.5587 62.3473 69.2557 63.5879 69.2557C64.8284 69.2557 65.9316 69.5587 66.8975 70.1648C67.8634 70.7708 68.6234 71.6326 69.1774 72.75C69.7313 73.8674 70.0083 75.1932 70.0083 76.7273ZM68.3038 76.7273C68.3038 75.4678 68.0931 74.4048 67.6717 73.5384C67.255 72.6719 66.6892 72.0161 65.9742 71.571C65.264 71.1259 64.4686 70.9034 63.5879 70.9034C62.7072 70.9034 61.9094 71.1259 61.1944 71.571C60.4842 72.0161 59.9184 72.6719 59.497 73.5384C59.0803 74.4048 58.872 75.4678 58.872 76.7273C58.872 77.9867 59.0803 79.0497 59.497 79.9162C59.9184 80.7827 60.4842 81.4384 61.1944 81.8835C61.9094 82.3286 62.7072 82.5511 63.5879 82.5511C64.4686 82.5511 65.264 82.3286 65.9742 81.8835C66.6892 81.4384 67.255 80.7827 67.6717 79.9162C68.0931 79.0497 68.3038 77.9867 68.3038 76.7273Z" fill="white"/>
<path d="M51.4407 84L46.4407 77.3239H44.6509V84H42.8895V69.4545H44.6509V75.7614H45.4179L51.2418 69.4545H53.3441L47.4634 75.8466L53.5429 84H51.4407Z" fill="white"/>
</svg>
