<svg width="320" height="90" viewBox="0 0 320 90" fill="none" xmlns="http://www.w3.org/2000/svg">
<path d="M265.532 54C265.05 52.556 264.404 50.7447 263.594 48.566H251.472L249.572 54H240.034L250.674 26.412H264.658L275.374 54H265.532ZM261.428 42.638C260.465 39.978 259.477 37.318 258.464 34.658L257.552 32.188C256.665 34.4933 255.36 37.9767 253.638 42.638H261.428Z" fill="white"/>
<path d="M233.955 26.412C233.778 30.6933 233.689 35.2913 233.689 40.206C233.689 45.1207 233.778 49.7187 233.955 54H225.025V43.664H211.041V54H202.111C202.314 49.0853 202.415 44.4873 202.415 40.206C202.415 35.9247 202.314 31.3267 202.111 26.412H211.041V36.748H225.025V26.412H233.955Z" fill="white"/>
<path d="M171.941 26.45L171.295 47.768L180.529 26.45H194.513C194.336 30.7313 194.247 35.3167 194.247 40.206C194.247 45.1207 194.336 49.7187 194.513 54H184.747L185.431 33.252L176.235 54H162.631C162.834 49.0853 162.935 44.4873 162.935 40.206C162.935 35.95 162.834 31.3647 162.631 26.45H171.941Z" fill="white"/>
<path d="M155.043 26.412C154.865 30.6933 154.777 35.2913 154.777 40.206C154.777 45.1207 154.865 49.7187 155.043 54H146.113V34.088H133.269V54H124.339C124.541 49.0853 124.643 44.4873 124.643 40.206C124.643 35.9247 124.541 31.3267 124.339 26.412H155.043Z" fill="white"/>
<path d="M107.909 54C107.428 52.556 106.782 50.7447 105.971 48.566H93.849L91.949 54H82.411L93.051 26.412H107.035L117.751 54H107.909ZM103.805 42.638C102.842 39.978 101.854 37.318 100.841 34.658L99.929 32.188C99.0423 34.4933 97.7376 37.9767 96.015 42.638H103.805Z" fill="white"/>
<path d="M76.3426 26.412C76.1652 30.6933 76.0765 35.2913 76.0765 40.206C76.0765 45.1207 76.1652 49.7187 76.3426 54H67.4125V34.088H54.5685V54H45.6385C45.8412 49.0853 45.9425 44.4873 45.9425 40.206C45.9425 35.9247 45.8412 31.3267 45.6385 26.412H76.3426Z" fill="white"/>
<circle cx="291" cy="49" r="5" fill="#FF4D00"><animate attributeName="opacity" values="1;0.3;1" dur="2.5s" repeatCount="indefinite"/></circle>
<path d="M262.421 80H261.012V69.6136H258.535C257.906 69.6136 257.4 69.7102 257.018 69.9034C256.635 70.0928 256.357 70.3618 256.183 70.7102C256.008 71.0587 255.921 71.4659 255.921 71.9318C255.921 72.3977 256.007 72.7993 256.177 73.1364C256.351 73.4697 256.628 73.7273 257.007 73.9091C257.389 74.0909 257.891 74.1818 258.512 74.1818H261.649V75.4546H258.467C257.565 75.4546 256.825 75.3049 256.245 75.0057C255.666 74.7027 255.236 74.286 254.955 73.7557C254.675 73.2254 254.535 72.6174 254.535 71.9318C254.535 71.2462 254.675 70.6345 254.955 70.0966C255.236 69.5587 255.667 69.1364 256.251 68.8296C256.834 68.519 257.58 68.3636 258.489 68.3636H262.421V80ZM256.944 74.7727H258.535L255.717 80H254.08L256.944 74.7727Z" fill="white"/>
<path d="M240.977 80H239.5L243.772 68.3636H245.227L249.5 80H248.022L244.545 70.2046H244.454L240.977 80ZM241.522 75.4546H247.477V76.7046H241.522V75.4546Z" fill="white"/>
<path d="M233.797 80L229.797 74.6591H228.365V80H226.956V68.3636H228.365V73.4091H228.979L233.638 68.3636H235.32L230.615 73.4773L235.479 80H233.797Z" fill="white"/>
<path d="M221.479 72H220.07C219.987 71.5947 219.841 71.2386 219.632 70.9318C219.428 70.625 219.178 70.3674 218.882 70.1591C218.591 69.947 218.267 69.7879 217.911 69.6818C217.555 69.5757 217.183 69.5227 216.797 69.5227C216.093 69.5227 215.454 69.7007 214.882 70.0568C214.314 70.4129 213.862 70.9375 213.524 71.6307C213.191 72.3238 213.024 73.1742 213.024 74.1818C213.024 75.1894 213.191 76.0398 213.524 76.7329C213.862 77.4261 214.314 77.9507 214.882 78.3068C215.454 78.6629 216.093 78.8409 216.797 78.8409C217.183 78.8409 217.555 78.7879 217.911 78.6818C218.267 78.5757 218.591 78.4185 218.882 78.2102C219.178 77.9981 219.428 77.7386 219.632 77.4318C219.841 77.1212 219.987 76.7651 220.07 76.3636H221.479C221.373 76.9583 221.18 77.4905 220.899 77.9602C220.619 78.4299 220.271 78.8295 219.854 79.1591C219.437 79.4848 218.969 79.7329 218.451 79.9034C217.935 80.0738 217.384 80.1591 216.797 80.1591C215.805 80.1591 214.922 79.9167 214.149 79.4318C213.377 78.947 212.769 78.2576 212.326 77.3636C211.882 76.4697 211.661 75.4091 211.661 74.1818C211.661 72.9545 211.882 71.8939 212.326 71C212.769 70.106 213.377 69.4167 214.149 68.9318C214.922 68.447 215.805 68.2045 216.797 68.2045C217.384 68.2045 217.935 68.2898 218.451 68.4602C218.969 68.6307 219.437 68.8807 219.854 69.2102C220.271 69.536 220.619 69.9337 220.899 70.4034C221.18 70.8693 221.373 71.4015 221.479 72Z" fill="white"/>
<path d="M198.759 80V68.3636H202.691C203.604 68.3636 204.35 68.5284 204.93 68.858C205.513 69.1837 205.945 69.625 206.225 70.1818C206.505 70.7386 206.645 71.3599 206.645 72.0455C206.645 72.7311 206.505 73.3542 206.225 73.9148C205.948 74.4754 205.52 74.9224 204.941 75.2557C204.361 75.5852 203.619 75.75 202.714 75.75H199.895V74.5H202.668C203.293 74.5 203.795 74.3921 204.174 74.1761C204.553 73.9602 204.827 73.6686 204.998 73.3011C205.172 72.9299 205.259 72.5114 205.259 72.0455C205.259 71.5796 205.172 71.1629 204.998 70.7955C204.827 70.428 204.551 70.1402 204.168 69.9318C203.786 69.7197 203.278 69.6136 202.645 69.6136H200.168V80H198.759Z" fill="white"/>
<path d="M193.19 74.1818C193.19 75.4091 192.968 76.4697 192.525 77.3636C192.082 78.2576 191.474 78.947 190.701 79.4318C189.928 79.9167 189.046 80.1591 188.053 80.1591C187.061 80.1591 186.178 79.9167 185.406 79.4318C184.633 78.947 184.025 78.2576 183.582 77.3636C183.139 76.4697 182.917 75.4091 182.917 74.1818C182.917 72.9545 183.139 71.8939 183.582 71C184.025 70.106 184.633 69.4167 185.406 68.9318C186.178 68.447 187.061 68.2045 188.053 68.2045C189.046 68.2045 189.928 68.447 190.701 68.9318C191.474 69.4167 192.082 70.106 192.525 71C192.968 71.8939 193.19 72.9545 193.19 74.1818ZM191.826 74.1818C191.826 73.1742 191.658 72.3238 191.32 71.6307C190.987 70.9375 190.534 70.4129 189.963 70.0568C189.394 69.7007 188.758 69.5227 188.053 69.5227C187.349 69.5227 186.711 69.7007 186.139 70.0568C185.57 70.4129 185.118 70.9375 184.781 71.6307C184.447 72.3238 184.281 73.1742 184.281 74.1818C184.281 75.1894 184.447 76.0398 184.781 76.7329C185.118 77.4261 185.57 77.9507 186.139 78.3068C186.711 78.6629 187.349 78.8409 188.053 78.8409C188.758 78.8409 189.394 78.6629 189.963 78.3068C190.534 77.9507 190.987 77.4261 191.32 76.7329C191.658 76.0398 191.826 75.1894 191.826 74.1818Z" fill="white"/>
<path d="M169.754 69.6136V68.3636H178.481V69.6136H174.822V80H173.413V69.6136H169.754Z" fill="white"/>
<path d="M163.688 80L159.688 74.6591H158.256V80H156.847V68.3636H158.256V73.4091H158.869L163.528 68.3636H165.21L160.506 73.4773L165.369 80H163.688Z" fill="white"/>
<path d="M144.276 80.1591V78.8409H145.003C145.283 78.8409 145.518 78.786 145.708 78.6761C145.901 78.5663 146.06 78.4243 146.185 78.25C146.314 78.0758 146.42 77.894 146.503 77.7046L146.685 77.2727L142.662 68.3636H144.185L147.389 75.5909L150.321 68.3636H151.821L147.799 78.1136C147.639 78.4773 147.458 78.8144 147.253 79.125C147.052 79.4356 146.778 79.6856 146.429 79.875C146.085 80.0644 145.617 80.1591 145.026 80.1591H144.276Z" fill="white"/>
<path d="M130.306 80V68.3636H134.238C135.151 68.3636 135.897 68.5284 136.476 68.858C137.06 69.1837 137.492 69.625 137.772 70.1818C138.052 70.7386 138.192 71.3599 138.192 72.0455C138.192 72.7311 138.052 73.3542 137.772 73.9148C137.495 74.4754 137.067 74.9224 136.488 75.2557C135.908 75.5852 135.166 75.75 134.261 75.75H131.442V74.5H134.215C134.84 74.5 135.342 74.3921 135.721 74.1761C136.1 73.9602 136.374 73.6686 136.545 73.3011C136.719 72.9299 136.806 72.5114 136.806 72.0455C136.806 71.5796 136.719 71.1629 136.545 70.7955C136.374 70.428 136.098 70.1402 135.715 69.9318C135.332 69.7197 134.825 69.6136 134.192 69.6136H131.715V80H130.306Z" fill="white"/>
<path d="M116.204 69.6136V68.3636H124.931V69.6136H121.272V80H119.863V69.6136H116.204Z" fill="white"/>
<path d="M111.363 72H109.954C109.871 71.5947 109.725 71.2386 109.517 70.9318C109.312 70.625 109.062 70.3674 108.767 70.1591C108.475 69.947 108.151 69.7879 107.795 69.6818C107.439 69.5757 107.068 69.5227 106.682 69.5227C105.977 69.5227 105.339 69.7007 104.767 70.0568C104.199 70.4129 103.746 70.9375 103.409 71.6307C103.075 72.3238 102.909 73.1742 102.909 74.1818C102.909 75.1894 103.075 76.0398 103.409 76.7329C103.746 77.4261 104.199 77.9507 104.767 78.3068C105.339 78.6629 105.977 78.8409 106.682 78.8409C107.068 78.8409 107.439 78.7879 107.795 78.6818C108.151 78.5757 108.475 78.4185 108.767 78.2102C109.062 77.9981 109.312 77.7386 109.517 77.4318C109.725 77.1212 109.871 76.7651 109.954 76.3636H111.363C111.257 76.9583 111.064 77.4905 110.784 77.9602C110.504 78.4299 110.155 78.8295 109.738 79.1591C109.322 79.4848 108.854 79.7329 108.335 79.9034C107.82 80.0738 107.269 80.1591 106.682 80.1591C105.689 80.1591 104.807 79.9167 104.034 79.4318C103.261 78.947 102.653 78.2576 102.21 77.3636C101.767 76.4697 101.545 75.4091 101.545 74.1818C101.545 72.9545 101.767 71.8939 102.21 71C102.653 70.106 103.261 69.4167 104.034 68.9318C104.807 68.447 105.689 68.2045 106.682 68.2045C107.269 68.2045 107.82 68.2898 108.335 68.4602C108.854 68.6307 109.322 68.8807 109.738 69.2102C110.155 69.536 110.504 69.9337 110.784 70.4034C111.064 70.8693 111.257 71.4015 111.363 72Z" fill="white"/>
<path d="M86.956 80V68.3636H88.3651V73.5455H94.5696V68.3636H95.9787V80H94.5696V74.7955H88.3651V80H86.956Z" fill="white"/>
<path d="M81.3867 74.1818C81.3867 75.4091 81.1651 76.4697 80.7219 77.3636C80.2787 78.2576 79.6707 78.947 78.898 79.4318C78.1253 79.9167 77.2427 80.1591 76.2503 80.1591C75.2579 80.1591 74.3753 79.9167 73.6026 79.4318C72.8298 78.947 72.2219 78.2576 71.7787 77.3636C71.3355 76.4697 71.1139 75.4091 71.1139 74.1818C71.1139 72.9545 71.3355 71.8939 71.7787 71C72.2219 70.106 72.8298 69.4167 73.6026 68.9318C74.3753 68.447 75.2579 68.2045 76.2503 68.2045C77.2427 68.2045 78.1253 68.447 78.898 68.9318C79.6707 69.4167 80.2787 70.106 80.7219 71C81.1651 71.8939 81.3867 72.9545 81.3867 74.1818ZM80.023 74.1818C80.023 73.1742 79.8545 72.3238 79.5173 71.6307C79.184 70.9375 78.7313 70.4129 78.1594 70.0568C77.5912 69.7007 76.9548 69.5227 76.2503 69.5227C75.5457 69.5227 74.9075 69.7007 74.3355 70.0568C73.7673 70.4129 73.3147 70.9375 72.9776 71.6307C72.6442 72.3238 72.4776 73.1742 72.4776 74.1818C72.4776 75.1894 72.6442 76.0398 72.9776 76.7329C73.3147 77.4261 73.7673 77.9507 74.3355 78.3068C74.9075 78.6629 75.5457 78.8409 76.2503 78.8409C76.9548 78.8409 77.5912 78.6629 78.1594 78.3068C78.7313 77.9507 79.184 77.4261 79.5173 76.7329C79.8545 76.0398 80.023 75.1894 80.023 74.1818Z" fill="white"/>
<path d="M65.4125 80L61.4125 74.6591H59.9807V80H58.5716V68.3636H59.9807V73.4091H60.5943L65.2534 68.3636H66.9352L62.2307 73.4773L67.0943 80H65.4125Z" fill="white"/>
</svg>
