<svg id="Слой_1" data-name="Слой 1" xmlns="http://www.w3.org/2000/svg" xmlns:xlink="http://www.w3.org/1999/xlink" viewBox="0 0 683.53 257.29"><defs><style>.cls-1{fill:url(#linear-gradient);}.cls-2{fill:url(#linear-gradient-2);}.cls-3{fill:url(#linear-gradient-3);}.cls-4{fill:url(#linear-gradient-4);}.cls-5{fill:url(#linear-gradient-5);}.cls-6{fill:url(#linear-gradient-6);}.cls-7{fill:url(#linear-gradient-7);}.cls-8{fill:url(#linear-gradient-8);}.cls-9{fill:url(#linear-gradient-9);}.cls-10{fill:url(#linear-gradient-10);}.cls-11{fill:url(#linear-gradient-11);}.cls-12{fill:url(#linear-gradient-12);}.cls-13{fill:url(#linear-gradient-13);}.cls-14{fill:url(#linear-gradient-14);}.cls-15{fill:url(#linear-gradient-15);}.cls-16{fill:url(#linear-gradient-16);}.cls-17{fill:url(#linear-gradient-17);}.cls-18{fill:url(#linear-gradient-18);}.cls-19{fill:url(#linear-gradient-19);}.cls-20{fill:url(#linear-gradient-20);}.cls-21{fill:url(#linear-gradient-21);}.cls-22{fill:url(#linear-gradient-22);}.cls-23{fill:url(#linear-gradient-23);}.cls-24{fill:url(#linear-gradient-24);}.cls-25{fill:url(#linear-gradient-25);}.cls-26{fill:url(#linear-gradient-26);}.cls-27{fill:url(#linear-gradient-27);}.cls-28{fill:url(#linear-gradient-28);}.cls-29{fill:url(#linear-gradient-29);}.cls-30{fill:url(#linear-gradient-30);}.cls-31{fill:url(#linear-gradient-31);}.cls-32{fill:url(#linear-gradient-32);}.cls-33{fill:url(#linear-gradient-33);}.cls-34{fill:url(#linear-gradient-34);}</style><linearGradient id="linear-gradient" x1="-157.18" y1="103.69" x2="514.57" y2="479.01" gradientUnits="userSpaceOnUse"><stop offset="0" stop-color="#663500"/><stop offset="0.36" stop-color="#b28a4c"/><stop offset="0.52" stop-color="#d0ad6a"/><stop offset="1" stop-color="#fdedc9"/></linearGradient><linearGradient id="linear-gradient-2" x1="-144.68" y1="81.32" x2="527.07" y2="456.64" xlink:href="#linear-gradient"/><linearGradient id="linear-gradient-3" x1="-137.27" y1="68.06" x2="534.47" y2="443.38" xlink:href="#linear-gradient"/><linearGradient id="linear-gradient-4" x1="-124.31" y1="44.87" x2="547.43" y2="420.19" xlink:href="#linear-gradient"/><linearGradient id="linear-gradient-5" x1="-118.6" y1="34.65" x2="553.14" y2="409.97" xlink:href="#linear-gradient"/><linearGradient id="linear-gradient-6" x1="-96.75" y1="-4.47" x2="575" y2="370.85" xlink:href="#linear-gradient"/><linearGradient id="linear-gradient-7" x1="-86.91" y1="-22.07" x2="584.83" y2="353.25" xlink:href="#linear-gradient"/><linearGradient id="linear-gradient-8" x1="-71.45" y1="-49.75" x2="600.3" y2="325.57" xlink:href="#linear-gradient"/><linearGradient id="linear-gradient-9" x1="-60.9" y1="-68.63" x2="610.84" y2="306.69" xlink:href="#linear-gradient"/><linearGradient id="linear-gradient-10" x1="-45.53" y1="-96.14" x2="626.22" y2="279.18" xlink:href="#linear-gradient"/><linearGradient id="linear-gradient-11" x1="-39.94" y1="-106.15" x2="631.81" y2="269.17" xlink:href="#linear-gradient"/><linearGradient id="linear-gradient-12" x1="-24.78" y1="-133.28" x2="646.97" y2="242.04" xlink:href="#linear-gradient"/><linearGradient id="linear-gradient-13" x1="-11.87" y1="-156.39" x2="659.88" y2="218.93" xlink:href="#linear-gradient"/><linearGradient id="linear-gradient-14" x1="-3.16" y1="-171.97" x2="668.59" y2="203.34" xlink:href="#linear-gradient"/><linearGradient id="linear-gradient-15" x1="-21.5" y1="-139.14" x2="650.24" y2="236.18" xlink:href="#linear-gradient"/><linearGradient id="linear-gradient-16" x1="-160.91" y1="110.38" x2="510.83" y2="485.7" xlink:href="#linear-gradient"/><linearGradient id="linear-gradient-17" x1="-152.8" y1="95.85" x2="518.95" y2="471.17" xlink:href="#linear-gradient"/><linearGradient id="linear-gradient-18" x1="-144.17" y1="80.41" x2="527.58" y2="455.72" xlink:href="#linear-gradient"/><linearGradient id="linear-gradient-19" x1="-133.51" y1="61.34" x2="538.23" y2="436.66" xlink:href="#linear-gradient"/><linearGradient id="linear-gradient-20" x1="-128.08" y1="51.61" x2="543.66" y2="426.93" xlink:href="#linear-gradient"/><linearGradient id="linear-gradient-21" x1="-121.97" y1="40.67" x2="549.78" y2="415.99" xlink:href="#linear-gradient"/><linearGradient id="linear-gradient-22" x1="-115.27" y1="28.69" x2="556.47" y2="404.01" xlink:href="#linear-gradient"/><linearGradient id="linear-gradient-23" x1="-108.8" y1="17.1" x2="562.95" y2="392.42" xlink:href="#linear-gradient"/><linearGradient id="linear-gradient-24" x1="-102.21" y1="5.31" x2="569.53" y2="380.63" xlink:href="#linear-gradient"/><linearGradient id="linear-gradient-25" x1="-94.15" y1="-9.12" x2="577.6" y2="366.2" xlink:href="#linear-gradient"/><linearGradient id="linear-gradient-26" x1="-87.87" y1="-20.36" x2="583.88" y2="354.96" xlink:href="#linear-gradient"/><linearGradient id="linear-gradient-27" x1="-79.04" y1="-36.16" x2="592.71" y2="339.16" xlink:href="#linear-gradient"/><linearGradient id="linear-gradient-28" x1="-68.8" y1="-54.48" x2="602.94" y2="320.84" xlink:href="#linear-gradient"/><linearGradient id="linear-gradient-29" x1="-63.53" y1="-63.93" x2="608.22" y2="311.39" xlink:href="#linear-gradient"/><linearGradient id="linear-gradient-30" x1="-57.72" y1="-74.31" x2="614.02" y2="301.01" xlink:href="#linear-gradient"/><linearGradient id="linear-gradient-31" x1="-49.74" y1="-88.63" x2="622" y2="286.69" xlink:href="#linear-gradient"/><linearGradient id="linear-gradient-32" x1="-41.03" y1="-104.19" x2="630.72" y2="271.12" xlink:href="#linear-gradient"/><linearGradient id="linear-gradient-33" x1="-45.81" y1="-95.64" x2="625.94" y2="279.68" xlink:href="#linear-gradient"/><linearGradient id="linear-gradient-34" x1="-40.45" y1="-105.23" x2="631.3" y2="270.09" xlink:href="#linear-gradient"/></defs><path class="cls-1" d="M8.12,208c-1.43,2.13-4.39,3.62-8.07,4.62,0,.89,0,1.8,0,2.7,5.13-1,11.53-3.67,14.42-7.32V175.79l-6.3,2.55Z"/><path class="cls-2" d="M65.73,207.43c-8.83,1.26-29.58,1.14-34.2-5.76V175.84l-6.3,2.54v23.29c3.27,4.13,11.08,7,16.4,7.63,7.33.86,22,1,30.4-1.28V175.84l-6.3,2.54Z"/><polygon class="cls-3" points="89.15 175.79 82.85 178.34 82.85 209.82 129.65 209.82 129.65 206.14 89.15 206.14 89.15 175.79"/><polygon class="cls-4" points="137.32 209.82 143.62 209.82 143.62 175.8 137.32 178.34 137.32 209.82"/><path class="cls-5" d="M177.55,175.79l-5.48,2.54h0L151.4,209.83h2.73l6-9.42c8.7-2.3,23.12-2.16,28.16,4.06l3.33,5.36h6.65Zm-1.31,21.43c-4.62-.21-10.45-.06-14.71,1L173.12,180l11.49,18.5A33.91,33.91,0,0,0,176.24,197.22Z"/><polygon class="cls-6" points="279.73 209.82 279.73 206.22 245.5 206.22 279.73 175.78 232.93 175.78 232.93 179.38 267.17 179.38 232.93 209.83 279.73 209.82"/><path class="cls-7" d="M310.75,175.79l-5.48,2.54h0L284.6,209.83h2.73l6-9.42c8.7-2.3,23.12-2.16,28.16,4.06l3.33,5.36h6.65Zm-1.31,21.43c-4.62-.21-10.45-.06-14.71,1L306.32,180l11.49,18.5A33.91,33.91,0,0,0,309.44,197.22Z"/><path class="cls-8" d="M360.49,188.44c-2.93-3.88-8.68-10.94-19.24-12.55h-1.89v34h1.89V179.43c8.79.45,15.42,6.54,19.24,10.9,3.84-4.38,10.51-10.51,19.36-10.91v30.43h6.31v-34h-6.31C369.29,177.43,363.42,184.56,360.49,188.44Z"/><path class="cls-9" d="M414.61,178.33h0l-20.67,31.49h2.73l6-9.42c8.7-2.3,23.11-2.16,28.15,4.06l3.33,5.36h6.66l-20.72-34Zm4.18,18.89c-4.63-.21-10.45-.06-14.71,1L415.67,180l11.48,18.5A33.82,33.82,0,0,0,418.79,197.22Z"/><polygon class="cls-10" points="484.91 175.8 438.11 175.8 438.11 179.39 458.36 179.39 458.36 209.82 464.66 209.82 464.66 179.39 484.91 179.39 484.91 175.8"/><path class="cls-11" d="M502.73,178.33h0l-20.66,31.49h2.73l6-9.42c8.7-2.3,23.12-2.16,28.16,4.06l3.32,5.36h6.66l-20.72-34Zm4.17,18.89c-4.62-.21-10.45-.06-14.71,1L503.78,180l11.49,18.5A34,34,0,0,0,506.9,197.22Z"/><polygon class="cls-12" points="536.76 209.82 580.95 209.82 580.95 206.14 543.06 206.14 543.06 190.3 570.33 190.3 570.33 188.41 543.06 188.41 543.06 179.38 580.95 179.38 580.95 175.79 536.76 175.79 536.76 209.82"/><path class="cls-13" d="M596,208V175.8l-6.3,2.56v31.48H596v0c14.94-.31,38.75-6.25,40.5-34l-6.3,2.57C627.07,201.64,610.84,207.74,596,208Z"/><path class="cls-14" d="M662.81,175.79l-5.48,2.54h0l-20.66,31.49h2.73l6-9.42c8.7-2.3,23.12-2.16,28.16,4.06l3.33,5.36h6.65Zm-1.31,21.43c-4.62-.21-10.45-.06-14.71,1L658.38,180l11.49,18.5A33.91,33.91,0,0,0,661.5,197.22Z"/><path class="cls-15" d="M292.67,104V11.66H396.86L305.28,104H437.45V92.33H345.9L437.45,0,292.67,0,272.31,8.29V104c-4.62,6.91-14.19,11.7-26.06,14.94-.07,2.89-.1,5.79-.17,8.73C262.63,124.39,283.33,115.79,292.67,104Z"/><path class="cls-16" d="M91.3,239.58a9.68,9.68,0,0,0-4-.74H80.78v18.32h1.33v-6h5.23a9.69,9.69,0,0,0,4-.73,5.65,5.65,0,0,0,2.53-2.12,6.64,6.64,0,0,0,0-6.64A5.67,5.67,0,0,0,91.3,239.58Zm.53,9.09a6.79,6.79,0,0,1-4.49,1.3H82.11v-9.92h5.23a6.79,6.79,0,0,1,4.49,1.29A4.56,4.56,0,0,1,93.36,245,4.52,4.52,0,0,1,91.83,248.67Z"/><polygon class="cls-17" points="127.72 238.84 119.55 253 111.34 238.84 110.22 238.84 110.22 257.16 111.53 257.16 111.53 241.53 119.19 254.73 119.85 254.73 127.52 241.49 127.54 257.16 128.85 257.16 128.82 238.84 127.72 238.84"/><path class="cls-18" d="M159.42,249.34a7.14,7.14,0,0,1-1.57,5.07,6.8,6.8,0,0,1-8.88,0,7.14,7.14,0,0,1-1.57-5.07v-10.5h-1.33v10.55q0,3.93,2,5.92a8.3,8.3,0,0,0,10.76,0q2-2,2-5.92V238.84h-1.33Z"/><path class="cls-19" d="M204.82,248.74a10.88,10.88,0,0,0-2.22-.85c-.81-.22-1.62-.43-2.44-.62a14.51,14.51,0,0,1-2.25-.71,4.26,4.26,0,0,1-1.63-1.12,2.78,2.78,0,0,1-.62-1.89,3.21,3.21,0,0,1,.55-1.84,3.75,3.75,0,0,1,1.7-1.32,7.42,7.42,0,0,1,2.91-.5,9.33,9.33,0,0,1,2.55.38,8.58,8.58,0,0,1,2.47,1.16l.5-1.07a8.36,8.36,0,0,0-2.53-1.2,10.18,10.18,0,0,0-3-.45,8.72,8.72,0,0,0-3.69.68,4.86,4.86,0,0,0-2.12,1.78,4.46,4.46,0,0,0-.68,2.41,4.07,4.07,0,0,0,.61,2.34,4.38,4.38,0,0,0,1.64,1.43,11.3,11.3,0,0,0,2.25.85c.82.22,1.63.42,2.43.62a15,15,0,0,1,2.23.7,4.32,4.32,0,0,1,1.64,1.13,2.72,2.72,0,0,1,.63,1.88,3.08,3.08,0,0,1-.56,1.81,3.8,3.8,0,0,1-1.73,1.29,7.88,7.88,0,0,1-3,.49,9.2,9.2,0,0,1-3.47-.67,7.54,7.54,0,0,1-2.58-1.64l-.6,1a7.13,7.13,0,0,0,2.81,1.79,10.78,10.78,0,0,0,3.86.69,9.06,9.06,0,0,0,3.73-.66,4.91,4.91,0,0,0,2.16-1.78,4.4,4.4,0,0,0,.71-2.4,3.88,3.88,0,0,0-.63-2.3A4.53,4.53,0,0,0,204.82,248.74Z"/><path class="cls-20" d="M224.75,245.29a6,6,0,0,1,5.25-.22,4.46,4.46,0,0,1,1.83,1.55l1-.71a5.17,5.17,0,0,0-2.19-1.88,7,7,0,0,0-3-.63,7.14,7.14,0,0,0-3.54.87,6.43,6.43,0,0,0-2.46,2.45,7.65,7.65,0,0,0,0,7.2,6.6,6.6,0,0,0,2.46,2.46,7.47,7.47,0,0,0,6.54.26,5.27,5.27,0,0,0,2.19-1.89l-1-.7a4.44,4.44,0,0,1-1.83,1.54,5.78,5.78,0,0,1-2.39.5,5.71,5.71,0,0,1-2.86-.72,5.13,5.13,0,0,1-2-2,6.17,6.17,0,0,1-.72-3,6.11,6.11,0,0,1,.72-3A5.15,5.15,0,0,1,224.75,245.29Z"/><path class="cls-21" d="M257.07,244a6.25,6.25,0,0,0-2.92-.64,6.36,6.36,0,0,0-3.53.93,5.09,5.09,0,0,0-1.83,2v-8.64h-1.31v19.42h1.31v-7.27a6.06,6.06,0,0,1,.61-2.83,4.44,4.44,0,0,1,1.79-1.83,5.6,5.6,0,0,1,2.78-.66,4.35,4.35,0,0,1,3.26,1.21,4.87,4.87,0,0,1,1.16,3.51v7.87h1.31v-8A6.73,6.73,0,0,0,259,246,4.54,4.54,0,0,0,257.07,244Z"/><path class="cls-22" d="M284.93,244.29a6.84,6.84,0,0,0-3.51-.89,6.74,6.74,0,0,0-3.49.89,6.64,6.64,0,0,0-2.44,2.44,7.63,7.63,0,0,0,0,7.19,6.7,6.7,0,0,0,2.44,2.46,6.84,6.84,0,0,0,3.49.89,6.94,6.94,0,0,0,3.51-.89,6.52,6.52,0,0,0,2.43-2.46,7.71,7.71,0,0,0,0-7.19A6.47,6.47,0,0,0,284.93,244.29Zm1.28,9.05a5,5,0,0,1-2,2,5.59,5.59,0,0,1-2.83.72,5.49,5.49,0,0,1-2.81-.72,5.13,5.13,0,0,1-2-2,6.67,6.67,0,0,1,0-6,5.24,5.24,0,0,1,2-2,5.59,5.59,0,0,1,2.81-.72,5.7,5.7,0,0,1,2.83.72,5.15,5.15,0,0,1,2,2,6.76,6.76,0,0,1,0,6Z"/><path class="cls-23" d="M312.14,244.29a7.33,7.33,0,0,0-7,0,6.61,6.61,0,0,0-2.43,2.44,7.63,7.63,0,0,0,0,7.19,6.67,6.67,0,0,0,2.43,2.46,7.33,7.33,0,0,0,7,0,6.62,6.62,0,0,0,2.44-2.46,7.71,7.71,0,0,0,0-7.19A6.57,6.57,0,0,0,312.14,244.29Zm1.28,9.05a5,5,0,0,1-2,2,5.88,5.88,0,0,1-5.64,0,5.11,5.11,0,0,1-2-2,6.67,6.67,0,0,1,0-6,5.22,5.22,0,0,1,2-2,5.88,5.88,0,0,1,5.64,0,5.08,5.08,0,0,1,2,2,6.76,6.76,0,0,1,0,6Z"/><rect class="cls-24" x="330.51" y="237.74" width="1.31" height="19.42"/><path class="cls-25" d="M370.66,243.4a8.94,8.94,0,0,0-3,.51,7.26,7.26,0,0,0-2.46,1.42l.65.95a7.24,7.24,0,0,1,2.08-1.25,7.11,7.11,0,0,1,2.63-.48,4.22,4.22,0,0,1,3,1,3.89,3.89,0,0,1,1,2.91v1.1h-4.69a7.14,7.14,0,0,0-3,.53,3.5,3.5,0,0,0-1.61,1.39,3.71,3.71,0,0,0-.49,1.9,3.62,3.62,0,0,0,.59,2,3.77,3.77,0,0,0,1.7,1.37,6.43,6.43,0,0,0,2.63.49,6,6,0,0,0,3.36-.88,4.64,4.64,0,0,0,1.56-1.68v2.45h1.26V248.5a5,5,0,0,0-1.36-3.82A5.46,5.46,0,0,0,370.66,243.4Zm2.18,12a5.19,5.19,0,0,1-2.92.78,4.46,4.46,0,0,1-2.8-.78,2.53,2.53,0,0,1-1-2.09,2.57,2.57,0,0,1,.85-2,4.41,4.41,0,0,1,3-.78h4.66v2.56A4.55,4.55,0,0,1,372.84,255.41Z"/><path class="cls-26" d="M401.89,244a6.25,6.25,0,0,0-2.92-.64,6.38,6.38,0,0,0-3.53.93,5.1,5.1,0,0,0-1.88,2.16v-3H392.3v13.66h1.31v-7.27a6.06,6.06,0,0,1,.61-2.83,4.41,4.41,0,0,1,1.8-1.83,5.57,5.57,0,0,1,2.77-.66,4.34,4.34,0,0,1,3.26,1.21,4.87,4.87,0,0,1,1.16,3.51v7.87h1.31v-8a6.73,6.73,0,0,0-.69-3.2A4.49,4.49,0,0,0,401.89,244Z"/><path class="cls-27" d="M431.74,246.64l0,0a6,6,0,0,0-2.3-2.39,6.48,6.48,0,0,0-3.26-.83,6.84,6.84,0,0,0-3.44.87,6.44,6.44,0,0,0-2.42,2.44,7.79,7.79,0,0,0,0,7.23,6.33,6.33,0,0,0,2.42,2.45,6.85,6.85,0,0,0,3.44.88,6.47,6.47,0,0,0,3.29-.84,5.92,5.92,0,0,0,2.29-2.41s0,0,0-.06v3.2h1.29V237.74h-1.31Zm-.72,6.7a5.18,5.18,0,0,1-2,2,5.86,5.86,0,0,1-5.63,0,5.11,5.11,0,0,1-2-2,6.67,6.67,0,0,1,0-6,5.22,5.22,0,0,1,2-2,5.86,5.86,0,0,1,5.63,0,5.29,5.29,0,0,1,2,2,6.67,6.67,0,0,1,0,6Z"/><path class="cls-28" d="M476.83,248.74a10.75,10.75,0,0,0-2.23-.85c-.8-.22-1.61-.43-2.43-.62a14.51,14.51,0,0,1-2.25-.71,4.3,4.3,0,0,1-1.64-1.12,2.77,2.77,0,0,1-.61-1.89,3.21,3.21,0,0,1,.55-1.84,3.7,3.7,0,0,1,1.7-1.32,7.4,7.4,0,0,1,2.9-.5,9.46,9.46,0,0,1,2.56.38,8.58,8.58,0,0,1,2.47,1.16l.5-1.07a8.36,8.36,0,0,0-2.53-1.2,10.19,10.19,0,0,0-3-.45,8.72,8.72,0,0,0-3.69.68,4.92,4.92,0,0,0-2.12,1.78,4.55,4.55,0,0,0-.68,2.41,4.07,4.07,0,0,0,.62,2.34,4.35,4.35,0,0,0,1.63,1.43,11.78,11.78,0,0,0,2.25.85l2.44.62a14.83,14.83,0,0,1,2.22.7,4.44,4.44,0,0,1,1.65,1.13,2.72,2.72,0,0,1,.63,1.88,3.15,3.15,0,0,1-.56,1.81,3.8,3.8,0,0,1-1.73,1.29,7.93,7.93,0,0,1-3,.49,9.15,9.15,0,0,1-3.46-.67,7.54,7.54,0,0,1-2.58-1.64l-.6,1a7.13,7.13,0,0,0,2.81,1.79,10.78,10.78,0,0,0,3.86.69,9.06,9.06,0,0,0,3.73-.66,4.91,4.91,0,0,0,2.16-1.78,4.4,4.4,0,0,0,.71-2.4,3.88,3.88,0,0,0-.63-2.3A4.53,4.53,0,0,0,476.83,248.74Z"/><path class="cls-29" d="M498.31,256.14a2.42,2.42,0,0,1-1.88-.7,2.87,2.87,0,0,1-.66-2v-8.79h4.35V243.5h-4.35v-3h-1.3v3H492v1.13h2.52v8.92a3.74,3.74,0,0,0,.95,2.72,3.64,3.64,0,0,0,2.76,1,4.9,4.9,0,0,0,1.53-.24,3.26,3.26,0,0,0,1.27-.73l-.55-.92A3,3,0,0,1,498.31,256.14Z"/><path class="cls-30" d="M526.26,250.78a6.16,6.16,0,0,1-.6,2.81,4.36,4.36,0,0,1-1.73,1.85,5.28,5.28,0,0,1-2.67.65,4.45,4.45,0,0,1-3.32-1.2,4.82,4.82,0,0,1-1.18-3.51V243.5h-1.31v8a6.63,6.63,0,0,0,.7,3.21,4.5,4.5,0,0,0,2,1.94,6.85,6.85,0,0,0,3,.64,5.92,5.92,0,0,0,3.34-.93,5.12,5.12,0,0,0,1.81-2.13v3h1.26V243.5h-1.31Z"/><path class="cls-31" d="M554.94,246.64s0,0,0,0a6.09,6.09,0,0,0-2.3-2.39,6.5,6.5,0,0,0-3.26-.83,6.84,6.84,0,0,0-3.44.87,6.44,6.44,0,0,0-2.42,2.44,7.79,7.79,0,0,0,0,7.23,6.33,6.33,0,0,0,2.42,2.45,6.85,6.85,0,0,0,3.44.88,6.41,6.41,0,0,0,3.28-.84,5.86,5.86,0,0,0,2.29-2.41l0-.06v3.2h1.28V237.74h-1.31Zm-.72,6.7a5.11,5.11,0,0,1-2,2,5.84,5.84,0,0,1-5.62,0,5.13,5.13,0,0,1-2-2,6.67,6.67,0,0,1,0-6,5.24,5.24,0,0,1,2-2,5.84,5.84,0,0,1,5.62,0,5.22,5.22,0,0,1,2,2,6.67,6.67,0,0,1,0,6Z"/><path class="cls-32" d="M573.42,238.06a1,1,0,0,0-.76.31,1,1,0,0,0-.31.76,1,1,0,0,0,.31.73,1.07,1.07,0,0,0,1.83-.75,1,1,0,0,0-.3-.75A1,1,0,0,0,573.42,238.06Z"/><rect class="cls-33" x="572.77" y="243.5" width="1.31" height="13.66"/><path class="cls-34" d="M599.43,244.29a7.33,7.33,0,0,0-7,0,6.61,6.61,0,0,0-2.43,2.44,7.63,7.63,0,0,0,0,7.19,6.67,6.67,0,0,0,2.43,2.46,7.33,7.33,0,0,0,7,0,6.62,6.62,0,0,0,2.44-2.46,7.71,7.71,0,0,0,0-7.19A6.57,6.57,0,0,0,599.43,244.29Zm1.28,9.05a5,5,0,0,1-2,2,5.88,5.88,0,0,1-5.64,0,5.11,5.11,0,0,1-2-2,6.67,6.67,0,0,1,0-6,5.22,5.22,0,0,1,2-2,5.88,5.88,0,0,1,5.64,0,5.08,5.08,0,0,1,2,2,6.76,6.76,0,0,1,0,6Z"/></svg>